# Created by DisUnity v0.3.4
v -2.4909546 -2.7183452 0.0
v -1.1472851 -0.6925061 14.995
v -1.1472851 -0.6925061 0.0
v -2.4909546 -2.7183452 14.995
v -1.1472851 -0.6925061 0.0
v 1.0852734 1.0439281 13.945546
v 1.0852734 1.0439281 0.0
v -1.1472851 -0.6925061 14.995
v 1.0852734 1.0439281 0.0
v 2.5529735 2.366925 11.397004
v 2.5529735 2.366925 0.0
v 1.0852734 1.0439281 13.945546
v -11.509267 1.5201843 -0.08496979
v -5.7625 0.5279358 15.168719
v -5.7625 0.5279358 -0.08496979
v -11.509267 1.5201843 14.598028
v -5.7625 0.5279358 -0.08496979
v -2.413662 -3.3583684 14.9150305
v -2.413662 -3.3583684 -0.08496979
v -5.7625 0.5279358 15.168719
v -2.413662 -3.3583684 -0.08496979
v -1.917539 -5.1774893 14.9150305
v -1.917539 -5.1774893 -0.08496979
v -2.413662 -3.3583684 14.9150305
v -1.917539 -5.1774893 -0.08496979
v -0.5531982 -6.8725805 14.00597
v -0.5531982 -6.8725805 -0.08496979
v -1.917539 -5.1774893 14.9150305
v -0.5531982 -6.8725805 -0.08496979
v 1.8447363 -8.56767 11.095069
v 1.8447363 -8.56767 -0.08496979
v -0.5531982 -6.8725805 14.00597
vn 0.83335614 -0.55273646 0.0
vn 0.83335614 -0.55273646 0.0
vn 0.83335614 -0.55273646 0.0
vn 0.83335614 -0.55273646 0.0
vn 0.61394054 -0.7893523 0.0
vn 0.6139405 -0.7893523 0.0
vn 0.61394054 -0.7893523 0.0
vn 0.61394054 -0.78935224 0.0
vn 0.66954243 -0.7427739 0.0
vn 0.6695424 -0.74277395 0.0
vn 0.66954243 -0.7427739 0.0
vn 0.6695424 -0.7427739 0.0
vn -0.17014448 -0.98541915 0.0
vn -0.17014447 -0.98541915 0.0
vn -0.17014448 -0.98541915 0.0
vn -0.17014448 -0.98541915 0.0
vn -0.75754726 -0.6527803 0.0
vn -0.75754726 -0.6527803 0.0
vn -0.75754726 -0.6527803 0.0
vn -0.75754726 -0.6527803 0.0
vn -0.96476394 -0.26311696 0.0
vn -0.96476394 -0.26311696 0.0
vn -0.96476394 -0.26311696 0.0
vn -0.96476394 -0.26311696 0.0
vn -0.7790118 -0.6270092 0.0
vn -0.7790118 -0.62700915 0.0
vn -0.7790118 -0.6270092 0.0
vn -0.7790118 -0.6270092 0.0
vn -0.57723516 -0.81657785 0.0
vn -0.57723516 -0.8165779 0.0
vn -0.57723516 -0.81657785 0.0
vn -0.5772352 -0.81657785 0.0
vt 4.9957633E-4 0.9995005
vt 0.2666269 4.994869E-4
vt 0.2666269 0.9995005
vt 4.9957633E-4 4.994869E-4
vt 0.2666269 0.9995005
vt 0.7088076 0.07041645
vt 0.7088076 0.9995005
vt 0.2666269 4.994869E-4
vt 0.7088076 0.9995005
vt 0.99950045 0.24020612
vt 0.99950045 0.9995005
vt 0.7088076 0.07041645
vt 4.99622E-4 0.9995005
vt 0.43041018 4.994869E-4
vt 0.43041018 0.9995005
vt 4.99622E-4 0.037875473
vt 0.43041018 0.9995005
vt 0.68093365 0.017114222
vt 0.68093365 0.9995005
vt 0.43041018 4.994869E-4
vt 0.68093365 0.9995005
vt 0.71804816 0.017114222
vt 0.71804816 0.9995005
vt 0.68093365 0.017114222
vt 0.71804816 0.9995005
vt 0.82011324 0.07665074
vt 0.82011324 0.9995005
vt 0.71804816 0.017114222
vt 0.82011324 0.9995005
vt 0.9995005 0.26729262
vt 0.9995005 0.9995005
vt 0.82011324 0.07665074

g light02
s 1
usemtl light02
f 3/3/3 2/2/2 1/1/1 
f 2/2/2 4/4/4 1/1/1 
f 7/7/7 6/6/6 5/5/5 
f 6/6/6 8/8/8 5/5/5 
f 11/11/11 10/10/10 9/9/9 
f 10/10/10 12/12/12 9/9/9 
f 15/15/15 14/14/14 13/13/13 
f 14/14/14 16/16/16 13/13/13 
f 19/19/19 18/18/18 17/17/17 
f 18/18/18 20/20/20 17/17/17 
f 23/23/23 22/22/22 21/21/21 
f 22/22/22 24/24/24 21/21/21 
f 27/27/27 26/26/26 25/25/25 
f 26/26/26 28/28/28 25/25/25 
f 31/31/31 30/30/30 29/29/29 
f 30/30/30 32/32/32 29/29/29 

