# Created by DisUnity v0.3.4
v -7.0454855 -17.031952 0.0
v -1.841765 -13.933107 15.0
v -1.841765 -13.933107 0.0
v -7.0454855 -17.031952 13.166592
v -1.841765 -13.933107 0.0
v 0.26311034 -8.612449 15.0
v 0.26311034 -8.612449 0.0
v -1.841765 -13.933107 15.0
v 0.26311034 -8.612449 0.0
v -0.029233398 -2.8240404 15.216804
v -0.029233398 -2.8240404 0.0
v 0.26311034 -8.612449 15.0
v -0.029233398 -2.8240404 0.0
v 0.73085934 -1.1869153 15.408803
v 0.73085934 -1.1869153 0.0
v -0.029233398 -2.8240404 15.216804
v 0.73085934 -1.1869153 0.0
v -0.2631079 -0.017540284 15.329326
v -0.2631079 -0.017540284 0.0
v 0.73085934 -1.1869153 15.408803
v -0.2631079 -0.017540284 0.0
v -0.32157713 6.0047445 15.0
v -0.32157713 6.0047445 0.0
v -0.2631079 -0.017540284 15.329326
v -0.32157713 6.0047445 0.0
v 1.374016 10.623777 15.552319
v 1.374016 10.623777 0.0
v -0.32157713 6.0047445 15.0
v 1.374016 10.623777 0.0
v 2.9526732 11.676214 15.0
v 2.9526732 11.676214 0.0
v 1.374016 10.623777 15.552319
v 2.9526732 11.676214 0.0
v 4.1805177 15.301278 14.368175
v 4.1805177 15.301278 0.0
v 2.9526732 11.676214 15.0
vn 0.5116535 -0.85919195 0.0
vn 0.5116534 -0.85919183 0.0
vn 0.5116535 -0.85919195 0.0
vn 0.5116534 -0.85919183 0.0
vn 0.9298794 -0.36786434 0.0
vn 0.9298794 -0.36786434 0.0
vn 0.9298794 -0.36786434 0.0
vn 0.9298794 -0.36786434 0.0
vn 0.998727 0.050440736 0.0
vn 0.998727 0.050440732 0.0
vn 0.998727 0.050440736 0.0
vn 0.998727 0.050440736 0.0
vn 0.9070092 -0.42111075 0.0
vn 0.9070092 -0.42111075 0.0
vn 0.9070092 -0.42111075 0.0
vn 0.9070092 -0.4211108 0.0
vn 0.76193976 0.64764786 0.0
vn 0.76193976 0.64764786 0.0
vn 0.76193976 0.64764786 0.0
vn 0.76193976 0.64764786 0.0
vn 0.9999529 0.009708355 0.0
vn 0.9999529 0.009708355 0.0
vn 0.9999529 0.009708355 0.0
vn 0.9999529 0.009708356 0.0
vn 0.9387483 -0.34460357 0.0
vn 0.9387483 -0.34460357 0.0
vn 0.9387483 -0.34460357 0.0
vn 0.9387483 -0.34460363 0.0
vn 0.5546996 -0.83205074 0.0
vn 0.55469954 -0.83205074 0.0
vn 0.5546996 -0.83205074 0.0
vn 0.5546996 -0.83205074 0.0
vn 0.9471445 -0.32080707 0.0
vn 0.9471445 -0.32080704 0.0
vn 0.9471445 -0.32080707 0.0
vn 0.9471445 -0.32080707 0.0
vt 0.99950045 0.9995004
vt 0.9037555 0.03597772
vt 0.9037554 0.99950045
vt 0.9995005 0.15374643
vt 0.9037554 0.99950045
vt 0.73936284 0.03597772
vt 0.73936284 0.99950045
vt 0.9037555 0.03597772
vt 0.73936284 0.99950045
vt 0.5605182 0.022051275
vt 0.56051815 0.9995004
vt 0.73936284 0.03597772
vt 0.56051815 0.9995004
vt 0.5099359 0.009718239
vt 0.50993586 0.9995004
vt 0.5605182 0.022051275
vt 0.50993586 0.9995004
vt 0.47380567 0.014823437
vt 0.4738056 0.9995004
vt 0.5099359 0.009718239
vt 0.4738056 0.9995004
vt 0.28773487 0.03597766
vt 0.2877348 0.9995004
vt 0.47380567 0.014823437
vt 0.2877348 0.9995004
vt 0.14502043 4.994869E-4
vt 0.14502037 0.9995004
vt 0.28773487 0.03597766
vt 0.14502037 0.9995004
vt 0.11250335 0.03597766
vt 0.11250329 0.9995004
vt 0.14502043 4.994869E-4
vt 0.11250329 0.9995004
vt 4.995465E-4 0.07656282
vt 4.994869E-4 0.9995004
vt 0.11250335 0.03597766

g Light1
s 1
usemtl Light1
f 3/3/3 2/2/2 1/1/1 
f 2/2/2 4/4/4 1/1/1 
f 7/7/7 6/6/6 5/5/5 
f 6/6/6 8/8/8 5/5/5 
f 11/11/11 10/10/10 9/9/9 
f 10/10/10 12/12/12 9/9/9 
f 15/15/15 14/14/14 13/13/13 
f 14/14/14 16/16/16 13/13/13 
f 19/19/19 18/18/18 17/17/17 
f 18/18/18 20/20/20 17/17/17 
f 23/23/23 22/22/22 21/21/21 
f 22/22/22 24/24/24 21/21/21 
f 27/27/27 26/26/26 25/25/25 
f 26/26/26 28/28/28 25/25/25 
f 31/31/31 30/30/30 29/29/29 
f 30/30/30 32/32/32 29/29/29 
f 35/35/35 34/34/34 33/33/33 
f 34/34/34 36/36/36 33/33/33 

