# Created by DisUnity v0.3.4
v -7.555 0.7475659 0.0
v -4.2807493 2.5600977 12.652561
v -4.2807493 2.5600977 0.0
v -7.555 0.7475659 11.907934
v -4.2807493 2.5600977 0.0
v -0.9187948 2.3262231 13.771406
v -0.9187948 2.3262231 0.0
v -4.2807493 2.5600977 12.652561
v -0.9187948 2.3262231 0.0
v 0.13364318 2.355459 13.771406
v 0.13364318 2.355459 0.0
v -0.9187948 2.3262231 13.771406
v 0.13364318 2.355459 0.0
v 2.3262222 -1.6496533 13.771406
v 2.3262222 -1.6496533 0.0
v 0.13364318 2.355459 13.771406
v 1.8601345 6.013142 13.94427
v 0.1645401 2.3880785 0.0
v 0.1645401 2.3880785 13.94427
v 1.8601345 6.013142 0.0
v 5.3097916 9.579739 12.885893
v 1.8601345 6.013142 0.0
v 1.8601345 6.013142 13.94427
v 5.3097916 9.579739 0.0
v 6.8299804 9.930549 10.80434
v 5.3097916 9.579739 0.0
v 5.3097916 9.579739 12.885893
v 6.8299804 9.930549 0.0
vn 0.48431587 -0.8748933 0.0
vn 0.48431587 -0.8748933 0.0
vn 0.48431587 -0.8748933 0.0
vn 0.48431584 -0.8748932 0.0
vn -0.06939733 -0.9975891 0.0
vn -0.06939732 -0.9975891 0.0
vn -0.06939733 -0.9975891 0.0
vn -0.06939733 -0.9975891 0.0
vn 0.027768446 -0.99961436 0.0
vn 0.027768446 -0.99961436 0.0
vn 0.027768446 -0.99961436 0.0
vn 0.027768446 -0.99961436 0.0
vn -0.87716055 -0.48019722 0.0
vn -0.87716055 -0.48019722 0.0
vn -0.87716055 -0.48019722 0.0
vn -0.87716055 -0.48019722 0.0
vn 0.9058095 -0.4236852 0.0
vn 0.9058095 -0.4236852 0.0
vn 0.9058095 -0.4236852 0.0
vn 0.9058095 -0.4236852 0.0
vn 0.7187923 -0.6952249 0.0
vn 0.7187922 -0.695225 0.0
vn 0.7187923 -0.69522494 0.0
vn 0.7187922 -0.695225 0.0
vn 0.2248582 -0.9743916 0.0
vn 0.22485818 -0.9743916 0.0
vn 0.22485818 -0.9743916 0.0
vn 0.22485818 -0.9743916 0.0
vt 4.9957633E-4 0.99950045
vt 0.24060282 0.081662476
vt 0.24060282 0.99950045
vt 4.9957633E-4 0.13567895
vt 0.24060282 0.99950045
vt 0.48713738 4.995465E-4
vt 0.48713738 0.99950045
vt 0.24060282 0.081662476
vt 0.48713738 0.99950045
vt 0.5643134 4.995465E-4
vt 0.5643134 0.99950045
vt 0.48713738 4.995465E-4
vt 0.5643134 0.99950045
vt 0.7250968 4.995465E-4
vt 0.7250968 0.99950045
vt 0.5643134 4.995465E-4
vt 0.51936054 4.994869E-4
vt 0.9995006 0.9995006
vt 0.99950063 4.995465E-4
vt 0.5193604 0.9995005
vt 0.046964347 4.994869E-4
vt 0.5193604 0.9995005
vt 0.51936054 4.994869E-4
vt 0.046964288 0.9995005
vt 4.995465E-4 4.994869E-4
vt 0.046964288 0.9995005
vt 0.046964347 4.994869E-4
vt 4.994869E-4 0.9995005

g Light05
s 1
usemtl Light05
f 3/3/3 2/2/2 1/1/1 
f 2/2/2 4/4/4 1/1/1 
f 7/7/7 6/6/6 5/5/5 
f 6/6/6 8/8/8 5/5/5 
f 11/11/11 10/10/10 9/9/9 
f 10/10/10 12/12/12 9/9/9 
f 15/15/15 14/14/14 13/13/13 
f 14/14/14 16/16/16 13/13/13 
f 19/19/19 18/18/18 17/17/17 
f 18/18/18 20/20/20 17/17/17 
f 23/23/23 22/22/22 21/21/21 
f 22/22/22 24/24/24 21/21/21 
f 27/27/27 26/26/26 25/25/25 
f 26/26/26 28/28/28 25/25/25 

